/* XPM */
static char *b406bb1b46d24ad6a4bedbc331fe24b2CWAqlX7NVtoXg9NC[] = {
/* columns rows colors chars-per-pixel */
"16 16 37 1 ",
"  c #664E6E",
". c #674F6F",
"X c #61536A",
"o c #62536A",
"O c #65506F",
"+ c #684E73",
"@ c #694D76",
"# c #6B4C76",
"$ c #6E477C",
"% c #6C4B78",
"& c #6C4B7A",
"* c #6B4C78",
"= c #6F487D",
"- c #6E497D",
"; c #775F7F",
": c #706576",
"> c #72637A",
", c #73647B",
"< c #75607F",
"1 c #6F4680",
"2 c #704781",
"3 c #724681",
"4 c #734585",
"5 c #724685",
"6 c #76428A",
"7 c #775F81",
"8 c #775D82",
"9 c #775F83",
"0 c #785E81",
"q c #785E83",
"w c #785C85",
"e c #795D86",
"r c #7B5C86",
"t c #7A5E87",
"y c #7B5B8A",
"u c #7B5C88",
"i c #756081",
/* pixels */
"65%u44&u45#u45&i",
"2-#t==#u==#r==&i",
"<<q7iiqqi<qii<ii",
":X.O>o..<o.O,o.#",
":X O>X .>o.O,o.+",
"<;q;q;q;<<qqq<qq",
"2=%t==#r==#t=%#q",
"2=%t==#r=-%t==#q",
";7977797i<qiq<qq",
":X.O>X..>X O,o +",
":X.O>X..>o.O>o.+",
";;777;77q<q;<<qq",
"1-@9$-#w=-#t=-#q",
"1-*w--#t%=#r==#q",
";7977777q;qii<qq",
":X..,X..>X O,o +"
};
