/* XPM */
static char *_fa8db8b7c3d42839062dcb83030d7d224qhpkKOXdhp5LSC[] = {
/* columns rows colors chars-per-pixel */
"16 16 25 1 ",
"  c #6F4B4B",
". c #794645",
"X c #7A4746",
"o c #7E6261",
"O c #8B3F3F",
"+ c #8D3F3F",
"@ c #9B3936",
"# c #933B3A",
"$ c #953B3B",
"% c #943C3A",
"& c #943C3B",
"* c #9B3938",
"= c #A03636",
"- c #A23636",
"; c #AC3231",
": c #874141",
"> c #804444",
", c #835F5F",
"< c #8E5B5A",
"1 c #9F5353",
"2 c #9B5555",
"3 c #955758",
"4 c #935958",
"5 c #905A5A",
"6 c #945858",
/* pixels */
";=O1*=+1-=:1==+3",
"*&:2&&:2$$:2$$:3",
"<444<4444<34<463",
"o XX, XX, XX, X>",
"o XX, XX, XX, X>",
"<<444<445544<543",
"@&:2&&:2&&:2&&:6",
"@&:2&&:2&&:2&&:6",
"<<44<<4455445546",
"o XX, XX, XX, X>",
"o XX, XX, XX, XX",
"<566<4445544<433",
"*&:2&&:2&&:2$&:6",
"*$:2$$:2&&:2&&:6",
"<<44<543<5444446",
"o XX, XX, XX, XX"
};
