/* XPM */
static char *_dfeb96626a148f0b78b3eba6206e066m6pwNARAjEz9gU9G[] = {
/* columns rows colors chars-per-pixel */
"64 64 3 1 ",
"  c black",
". c #3A3277",
"X c #6772A9",
/* pixels */
"                                                                ",
"                                                                ",
"                                  ...                           ",
"                                 .. ...                         ",
"                                .. X                            ",
"                               ..   XXX                         ",
"                              .X                                ",
"                             .XXX                               ",
"                            .XXXXX                              ",
"                           .XXXXXXX                             ",
"                          .XXXXXXXXX                            ",
"                          .XXXXXXXXX                            ",
"                          .X.XXXX.XX                            ",
"                          .XX....XXX                            ",
"                          .XXXXXXXXXX                           ",
"                         .XXXXXXXXXXX                           ",
"                         .XXX....XXXX                           ",
"                         .XXXXXXXXXXX                           ",
"                         .XXXXXXXXXXX                           ",
"                          XXXXXXXXXX                            ",
"                     ......XXXXXXXX........                     ",
"                    .......XXXXXXXX.XXXXXX...                   ",
"                   .........X.XX.XX.XXXXXXX...                  ",
"                  ........X........XXXXXXXXX.X.                 ",
"                 .X.....XXXXXXXXXXXXXXXXXXXX.X.                 ",
"                .XXX.....XXXXXXXXXXXXXXXXXXX.XX.                ",
"                .XXXX.....XXXXXXXXXXXXXXXXX.XXXX.               ",
"                .XXXXX..........XXXXXXXXX..XXXXXX.              ",
"               .XXXXXXX.............XX....X.XXXXXX              ",
"               .XXXXXXXX..............XXXXXX.XXXXX.             ",
"              ...XXXXXXXXXXXXXXXXXXXXXXXXXXX..XXXXX             ",
"             .....XXXX.XXXXXXXX.XXXXX...................        ",
"             .....XXXX.XXXXXXXX.XXXXX...................        ",
"             .....XXX.XXXXXXXXX.XXXXX...................        ",
"             X...XXX. XXXXXXXX...XXXX...................        ",
"             X...XXX  XXXXXXXXX.XXXXX..........X........        ",
"             X...XXX  XXXXXXXXXXXXXXX........XXXXX......        ",
"           .........  XXXXXX......XXX......XXXXXXXXXXX..        ",
"            .......  ...........X.........XXXXX.XXXXXXX.        ",
"              .XX   ...........XXXXXX.....XXXXX.XXXXXXX.        ",
"              .XX   ..........XXXXXXX.....XXXXX.XXXXXXX.        ",
"              .XX    ........XXXX.........XXXXX.XXXXXX.         ",
"              .XX     ..XXXX......XXXX....XXX.....XXXX..        ",
"              .XX     .XXXXXXXXXXXXXXXX...XXXXX.XXXXX.XX.       ",
"              .XX     .XXXXXXXXXXXXXXXX...XXXXX.XXXXX.XXX.      ",
"              .XX     .XXXXXXXX.XXXXXXX...XXXXXXXXXXX.XXXX.     ",
"              .XX    ..XXXXXXX.X.XXXXXX....XXXXXXXXXX.XXXXX.    ",
"              .XX   ...XXXXXXX.X.XXXXXXX....XXXXXXXX.XXXXXX.    ",
"              .XX  ...XXXXXXX.XXX.XXXXXXX.....XXXXX.XXXXXXXX.   ",
"              .XX  ...XXXXXX.XXXX.X.XXXXXX.........XXXXXXXXX.   ",
"              .XX  ....XXXXX.XXXXX..XXXXXXX.XXXXXXXXXXXXXXXX.   ",
"              .XX   ......X.............XX. XXXXXXXXXXXXXXX.    ",
"              .XX    ......        .......  ..............      ",
"               .                                                ",
"                                                                ",
"                                                                ",
"                                                                ",
"                                                                ",
"                                                                ",
"                                                                ",
"                                                                ",
"                                                                ",
"                                                                ",
"                                                                "
};
