/* XPM */
static char *_4f4246f4ee54e1cd6bdbbc58bad4d67rghGSR5i1LMzXb6p[] = {
/* columns rows colors chars-per-pixel */
"64 64 2 1 ",
"  c #3A3277",
". c #6772A9",
/* pixels */
"                                                                ",
"  .........         .........       ........       .........    ",
" ............     ............    ...........    .............. ",
" .............   .............   .............   .............. ",
" .............   ..............  .............   .............  ",
"  ...........     ............    ............    ..........    ",
"   .........        ........       .........         .....      ",
"                                                                ",
"....        .......        .........       .........      ......",
".......    ..........     ...........    .............   .......",
".......   ............   .............  ............... ........",
".......  ..............  .............. ............... ........",
".......   ............   .............    ............  ........",
"......    ............   ............     ...........   ........",
"....         ......       .........         .........     ......",
"                                                                ",
"  ..........       .........          ......        ..........  ",
" ............     ...........    ............      .............",
"..............  ..............  ...............   ..............",
"..............  ............... ...............  ...............",
"..............  ...............  .............   ...............",
"  ...........    .............    ..........      ............. ",
"     .....          ......           .....          ..........  ",
"                                                                ",
".....      .........        ........       ..........       ....",
".......   ...........    .............   .............     .....",
".......   ............  ...............  ..............  .......",
".......  .............  ...............  ..............   ......",
".......  .............  ...............   .............   ......",
"......    ............   .............    ............     .....",
"....       .........        ........        ........        ....",
"                                                                ",
"   ..........      ........        ..........      ..........   ",
"  ............   ...........      ............    ............  ",
" ..............  .............   ..............  .............. ",
" ..............  .............  ...............  .............. ",
"  ............    ...........   ...............   ............. ",
"   ..........      .........     .............    ............. ",
"    .......         .......          .......       ..........   ",
"                                                                ",
"...            ....         ...             ....           .....",
".....       .........      .........     ............      .....",
".......    ...........     ..........   ..............    ......",
".......   ............    ............  ..............    ......",
".......   ...........     ............   ............     ......",
"......     ..........     ...........      .........       .....",
".....        .......        ........        .......          ...",
"                                                                ",
"   .........        ......        .........          ........   ",
"  ............    ...........    ...........      ............  ",
" ..............  .............   ............     ............. ",
" ..............  .............  ..............    ............. ",
" ..............  .............  ..............    ............  ",
"  ............   ............     ............    ...........   ",
"    .........     ..........       .........       ..........   ",
"                                                                ",
".....        ......         .....          .........       .....",
"......    ............    ...........     ...........     ......",
".......   ............   .............    ............   .......",
".......   ............   .............    ............   .......",
".......   ............   .............     ...........   .......",
".......    .........      ............      ..........   .......",
".....       .......        ..........        .......       .....",
"                                                                "
};
