/* XPM */
static char *_4ac6d0c143d46dedaa46b97391f9ab0E8pkoe5hPnGy5e4g[] = {
/* columns rows colors chars-per-pixel */
"61 61 4 1 ",
"  c black",
". c #504850",
"X c magenta",
"o c #888088",
/* pixels */
"XXXXXXXXXXXXXXXXXXXXXXXXXXXXXXXXXXXXXXXXXXXXXXXXXXXXXXXXXXXXX",
"XXXXXXXXXXXXXXXXXXXXXXXXXXXXXXXXXXXXXXXXXXXXXXXXXXXXXXXXXXXXX",
"XXXXXXXXXXXXXXXXXXXXXXXXXXXXXXXXXXXXXXXXXXXXXXXXXXXXXXXXXXXXX",
"XXXXXXXXXXXXXXXXXXXXXXXXXXXXXXXXXXXXXXXXXXXXXXXXXXXXXXXXXXXXX",
"XXXXXXXXXXXXXXXXXXXXXXXXXXXXXXXXXXXXXXXXXXXXXXXXXXXXXXXXXXXXX",
"XXXXXXXXXXXXXXXXXXXXXXXXXXXXXXXXXXXXXXXXXXXXXXXXXXXXXXXXXXXXX",
"XXXXXXXXXXXXXXXXXXXXXXXXXXXXXXXXXXXXXXXXXXXXXXXXXXXXXXXXXXXXX",
"XXXXXXXXXXXXXXXXXXXXXXXXXXXXXXXXXXXXXXXXXXXXXXXXXXXXXXXXXXXXX",
"XXXXXXXXXXXXXXXXXXXXXXXXXXXXXXXXXXXXXXXXXXXXXXXXXXXXXXXXXXXXX",
"XXXXXXXXXXXXXXXXXXXXXXXXXXXXXXXXXXXXXXXXXXXXXXXXXXXXXXXXXXXXX",
"XXXXXXXXXXXXXXXXXXXXXXXXXXXXXXXXXXXXXXXXXXXXXXXXXXXXXXXXXXXXX",
"XXXXXXXXXXXXXXXXXXXXXXXXXXXXXXXXXXXXXXXXXXXXXXXXXXXXXXXXXXXXX",
"XXXXXXXXXXXXXXXXXXXXXXXXXXXXXXXXXXXXXXXXXXXXXXXXXXXXXXXXXXXXX",
"XXXXXXXXXXXXXXXXXXXXXXXXXXXXXXXXXXXXXXXXXXXXXXXXXXXXXXXXXXXXX",
"XXXXXXXXXXXXXXXXXXXXXXXXXXXXXXXXXXXXXXXXXXXXXXXXXXXXXXXXXXXXX",
"XXXXXXXXXXXXXXXXXXXXXXXXXXXXXXXXXXXXXXXXXXXXXXXXXXXXXXXXXXXXX",
"XXXXXXXXXXXXXXXXXXXXXXXXXXXXXXXXXXXXXXXXXXXXXXXXXXXXXXXXXXXXX",
"XXXXXXXXXXXXXXXXXXXXXXXXXXXXXXXXXXXXXXXXXXXXXXXXXXXXXXXXXXXXX",
"XXXXXXXXXXXXXXXXXXXXXXXXXXXXXXXXXXXXXXXXXXXXXXXXXXXXXXXXXXXXX",
"XXXXXXXXXXXXXXXXXXXXXXXXXXXXXXXXXXXXXXXXXXXXXXXXXXXXXXXXXXXXX",
"XXXXXXXXXXXXXXXXXXXXXXXXXXXXXXXXXXXXXXXXXXXXXXXXXXXXXXXXXXXXX",
"XXXXXXXXXXXXXXXXXXXXXXXXXXXXXXXXXXXXXXXXXXXXXXXXXXXXXXXXXXXXX",
"XXXXXXXXXXXXXXXXXXXXXXXXXXXXXXXXXXXXXXXXXXXXXXXXXXXXXXXXXXXXX",
"XXXXXXXXXXXXXXXXoooXXoooXXXXXXXXXXXXXXXXXXXXXXXXXXXXXXXXXXXXX",
"XXXXXXXXXXXXXXXXo  oo  .XXXXXXXXXXXXXXXXXXXXXXXXXXXXXXXXXXXXX",
"XXXXXXXXXXXXXooo       .XXXXXXXXXXXXXXXXXXXXXXXXXXXXXXXXXXXXX",
"XXXXXXXXXXXoo           .XXXXXXXXXXXXXXXXXXXXXXXXXXXXXXXXXXXX",
"XXXXXXXXXXXo            .XXXXXXXXXXXXXXXXXXXXXXXXXXXXXXXXXXXX",
"XXXXXXXXXXXo            .XXXXXXXXoooooXXXXXXXXXXXXXXXXXXXXXXX",
"XXXXXXXXXXXX.            .XXXXXoo     ..XXXXXXXXXXXXXXXXXXXXX",
"XXXXXXXXXXXX.            .XXXXo         .XXXXXXXXXXXXXXXXXXXX",
"XXXXXXXXXXXX.          ...XXXo           .XXXoooXXXXXXXXXXXXX",
"XXXXXXXXXXXXX.  ...  ..XXXXXo             .Xo   .XXXXXXXXXXXX",
"XXXXXXXXXXXXX...XX.  .XXXXXo               .     .XXXXXXXXXXX",
"XXXXXXXXXXXXXXXXXXX.  .XXXXo                     .XXXXXXXXXXX",
"XXXXXXXXXXXXXXXXXXX.  .XXXXo                     .XXXXXXXXXXX",
"XXXXXXXXXXXXXXXXXXX.  .XXXXo         ....   .   .XXXXXXXXXXXX",
"XXXXXXXXXXXXXXXXXXXX.  .XXX.        .XXXX.  ....XXXXXXXXXXXXX",
"XXXXXXXXXXXXXXXXXXXX.  .XXXX.      .XXXXXX..XXXXXXXXXXXXXXXXX",
"XXXXXXXXXXXXXXXXXXXo    .XXX.     .XXXXXXXXXXXXXXXXXXXXXXXXXX",
"XXXXXXXXXXXXXXXXXXo     .XXXX.    .XXXXXXXXXXXXXXXXXXXXXXXXXX",
"XXXXXXXXXXXXXXXXXXo      .XXXX.   .XXXXXXXXXXXXXXXXXXXXXXXXXX",
"XXXXXXXXXXXXXXXXXXo       ..XXX..  .XXXXXXXXXXXXXXXXXXXXXXXXX",
"XXXXXXXXXXXXXXXXXXX.        ....   .....XXXXXXXXXXXXXXXXXXXXX",
"XXXXXXXXXXXXXXXXXXXX....                ......XXXXXXXXXXXXXXX",
"XXXXXXXXXXXXXXXXXXXXXXXX....         ..       .XXXXXXXXXXXXXX",
"XXXXXXXXXXXXXXXXXXXXXXXXXXXX..       .X..     .XXXXXXXXXXXXXX",
"XXXXXXXXXXXXXXXXXXXXXXXXXXXXX.       .XXX.    .XXXXXXXXXXXXXX",
"XXXXXXXXXXXXXXXXXXXXXXXXXXXXX.        ..XX.  ..XXXXXXXXXXXXXX",
"XXXXXXXXXXXXXXXXXXXXXXXXXXXXXoo         ..X..XXXXXXXXXXXXXXXX",
"XXXXXXXXXXXXXXXXXXXXXXXXXXXoo        .    .XXXXXXXXXXXXXXXXXX",
"XXXXXXXXXXXXXXXXXXXXXXXXXXo    ..  ..X..   .XXXXXXXXXXXXXXXXX",
"XXXXXXXXXXXXXXXXXXXXXXXXXo   ..XX..XXXXX.  .XXXXXXXXXXXXXXXXX",
"XXXXXXXXXXXXXXXXXXXXXXXXXo  .XXXXXXXXXXX.  .XXXXXXXXXXXXXXXXX",
"XXXXXXXXXXXXXXXXXXXXXXXXXo  .XXXXXXXXXXo.   ...XXXXXXXXXXXXXX",
"XXXXXXXXXXXXXXXXXXXXXXooo   ..XXXXXXXXo        .XXXXXXXXXXXXX",
"XXXXXXXXXXXXXXXXXXXXXo        .XXXXXXX.         .XXXXXXXXXXXX",
"XXXXXXXXXXXXXXXXXXXXo         .XXXXXXX..        .XXXXXXXXXXXX",
"XXXXXXXXXXXXXXXXXXXXo        ..XXXXXXXXX..      .XXXXXXXXXXXX",
"XXXXXXXXXXXXXXXXXXXX.      ..XXXXXXXXXXXXX......XXXXXXXXXXXXX",
"XXXXXXXXXXXXXXXXXXXXX......XXXXXXXXXXXXXXXXXXXXXXXXXXXXXXXXXX"
};
