/* XPM */
static char *b1d3671b7f0340d5b8020cfa556009da7CTMUwNJLjmBAMXz[] = {
/* columns rows colors chars-per-pixel */
"64 64 125 2 ",
"   c #020002",
".  c #080007",
"X  c #0D000D",
"o  c #0F0010",
"O  c #140014",
"+  c #180017",
"@  c #1B001B",
"#  c #240024",
"$  c #353534",
"%  c #551E54",
"&  c #581D57",
"*  c #5E165F",
"=  c #5A1B5A",
"-  c #442A44",
";  c #4B264B",
":  c #522151",
">  c #5F1760",
",  c #6D0D6C",
"<  c #700C6F",
"1  c #631563",
"2  c #681067",
"3  c #601861",
"4  c #671368",
"5  c #691168",
"6  c #770777",
"7  c #740973",
"8  c #7C047B",
"9  c #7C567C",
"0  c gray40",
"q  c #81007F",
"w  c #830082",
"e  c #890089",
"r  c #8C2F8A",
"t  c #942993",
"y  c #9E229E",
"u  c #9C3F9A",
"i  c #A03C9F",
"p  c #A21FA1",
"a  c #A637A7",
"s  c #A439A4",
"d  c #A83DA7",
"f  c #AC33AC",
"g  c #AC3BAB",
"h  c #B039AF",
"j  c #B22FB1",
"k  c #BC2DBB",
"l  c #B434B4",
"z  c #B931B7",
"x  c #B931B9",
"c  c #C025BF",
"v  c #C02CBE",
"b  c #854E85",
"n  c #8A4A8A",
"m  c #815181",
"M  c #8F4790",
"N  c #934592",
"B  c #9A439A",
"V  c #9B489A",
"C  c #A0439E",
"Z  c #A341A2",
"A  c #D41ED3",
"S  c #DB1AD7",
"D  c #DE16DD",
"F  c #DB19DA",
"G  c #C727C6",
"H  c #C32AC2",
"J  c #C828C6",
"K  c #CC23CB",
"L  c #D121CE",
"P  c #D320D3",
"I  c #D120D0",
"U  c #E90EE8",
"Y  c #E90FE9",
"T  c #EB0EE9",
"R  c #EA0FE9",
"E  c #EA0EEA",
"W  c #ED0DEA",
"Q  c #EE0BEE",
"!  c #ED0CEC",
"~  c #EF0CEF",
"^  c #EC0DEB",
"/  c #F00BEE",
"(  c #F10CEF",
")  c #E313E1",
"_  c #E313E3",
"`  c #E015E0",
"'  c #E215E0",
"]  c #E214E1",
"[  c #E414E2",
"{  c #E611E5",
"}  c #E713E4",
"|  c #E710E7",
" . c #E413E4",
".. c #E910E7",
"X. c #F306F2",
"o. c #F407F3",
"O. c #F405F4",
"+. c #F506F5",
"@. c #F805F7",
"#. c #F805F7",
"$. c #F109F1",
"%. c #F209F0",
"&. c #F00AF0",
"*. c #F10AF0",
"=. c #F30AF2",
"-. c #F408F1",
";. c #F10AF1",
":. c #FA02F9",
">. c #FB03F9",
",. c #FB03FA",
"<. c #FD03FB",
"1. c #F804F9",
"2. c #F904F9",
"3. c #F906F8",
"4. c #FC01FC",
"5. c #FF00FC",
"6. c #FE01FC",
"7. c #FE00FD",
"8. c #FF00FD",
"9. c #FE00FE",
"0. c #FF00FE",
"q. c #FE00FF",
"w. c magenta",
"e. c #FF01FF",
"r. c #FF00FE",
/* pixels */
"0.0.0.0.0.0.0.0.0.0.0.0.0.0.0.0.0.0.0.0.0.0.0.0.0.0.0.0.0.0.0.0.0.0.0.0.0.0.0.0.0.0.0.0.0.0.0.0.0.0.0.0.0.0.0.0.0.0.0.0.0.0.0.0.",
"0.0.0.0.0.0.0.0.0.0.0.0.0.0.0.0.0.0.0.0.0.0.0.0.0.0.0.0.0.0.0.0.0.0.0.0.0.0.0.0.0.0.0.0.0.0.0.0.0.0.0.0.0.0.0.0.0.0.0.0.0.0.0.0.",
"0.0.0.0.0.0.0.0.0.0.0.0.0.0.0.0.0.0.0.0.0.0.0.0.0.0.0.0.0.0.0.0.0.0.0.0.0.0.0.0.0.0.0.0.0.0.0.0.0.0.0.0.0.0.0.0.0.0.0.0.0.0.0.0.",
"0.0.0.0.0.0.0.0.0.0.0.0.0.0.0.0.0.0.0.0.0.0.0.0.0.0.0.0.0.0.0.0.0.0.0.0.0.0.0.0.0.0.0.0.0.0.0.0.0.0.0.0.0.0.0.0.0.0.0.0.0.0.0.0.",
"0.0.0.0.0.0.0.0.0.0.0.0.0.0.0.0.0.0.0.0.0.0.0.0.0.0.0.0.0.0.0.0.0.0.0.0.0.0.0.0.0.0.0.0.0.0.0.0.0.0.0.0.0.0.0.0.0.0.0.0.0.0.0.0.",
"0.0.0.0.0.0.0.0.0.0.0.0.0.0.0.0.0.0.0.0.0.0.0.0.0.0.0.0.0.0.0.0.0.0.0.0.0.0.0.0.0.0.0.0.0.0.0.0.0.0.0.0.0.0.0.0.0.0.0.0.0.0.0.0.",
"0.0.0.0.0.0.0.0.0.0.0.0.0.0.0.0.0.0.0.0.0.0.0.0.0.0.0.0.0.0.0.0.0.0.0.0.0.0.0.0.0.0.0.0.0.0.0.0.0.0.0.0.0.0.0.0.0.0.0.0.0.0.0.0.",
"0.0.0.0.0.0.0.0.0.0.0.0.0.0.0.0.0.0.0.0.0.0.0.0.0.0.0.0.0.0.0.0.0.0.0.0.0.0.0.0.0.0.0.0.0.0.0.0.0.0.0.0.0.0.0.0.0.0.0.0.0.0.0.0.",
"0.0.0.0.0.0.0.0.0.0.0.0.0.0.0.0.0.0.0.0.0.0.0.0.0.0.0.0.0.0.0.0.0.0.0.0.0.0.0.0.0.0.0.0.0.0.0.0.0.0.0.0.0.0.0.0.0.0.0.0.0.0.0.0.",
"0.0.0.0.0.0.0.0.0.0.0.0.0.0.0.0.0.0.0.0.0.0.0.0.0.0.0.0.0.0.0.0.0.0.0.0.0.0.0.0.0.0.0.0.0.0.0.0.0.0.0.0.0.0.0.0.0.0.0.0.0.0.0.0.",
"0.0.0.0.0.0.0.0.0.0.0.0.0.0.0.0.0.0.0.0.0.0.0.0.0.0.0.0.0.0.0.0.0.0.0.0.0.0.0.0.0.0.0.0.0.0.0.0.0.0.0.0.0.0.0.0.0.0.0.0.0.0.0.0.",
"0.0.0.0.0.0.0.0.0.0.0.0.0.0.0.0.0.0.0.0.0.0.0.0.0.0.0.0.0.0.0.0.0.0.0.0.0.0.0.0.0.0.0.0.0.0.0.0.0.0.0.0.0.0.0.0.0.0.0.0.0.0.0.0.",
"0.0.0.0.0.0.0.0.0.0.0.0.0.0.0.0.0.0.0.0.0.0.0.0.0.0.0.0.0.0.0.0.0.0.0.0.0.0.0.0.0.0.0.0.0.0.0.0.0.0.0.0.0.0.0.0.0.0.0.0.0.0.0.0.",
"0.0.0.0.0.0.0.0.0.0.0.0.0.0.0.0.0.0.0.0.0.0.0.0.0.0.0.0.0.0.0.0.0.0.0.0.0.0.0.0.0.0.0.0.0.0.0.0.0.0.0.0.0.0.0.0.0.0.0.0.0.0.0.0.",
"0.0.0.0.0.0.0.0.0.0.0.0.0.0.0.0.0.0.0.0.0.0.0.0.0.0.0.0.0.0.0.0.0.0.0.0.0.0.0.0.0.0.0.0.0.0.0.0.0.0.0.0.0.0.0.0.0.0.0.0.0.0.0.0.",
"0.0.0.0.0.0.0.0.0.0.0.0.0.0.0.0.0.0.0.0.0.0.0.0.0.0.0.0.0.0.0.0.0.0.0.0.0.0.0.0.0.0.0.0.0.0.0.0.0.0.0.0.0.0.0.0.0.0.0.0.0.0.0.0.",
"0.0.0.0.0.0.0.0.0.0.0.0.0.0.0.0.0.0.0.0.0.0.0.0.0.0.0.0.0.0.0.0.0.0.0.0.0.0.0.0.0.0.0.0.5.0.0.0.0.0.0.0.0.0.0.0.0.0.0.0.0.0.0.0.",
"0.0.0.0.0.0.0.0.0.0.0.0.0.0.0.0.0.0.0.0.0.0.0.0.0.0.0.0.0.0.0.0.0.0.0.0.0.0.0.0.0.0.0.0.5.0.0.0.0.0.0.0.0.0.0.0.0.0.0.0.0.0.0.0.",
"0.0.0.0.0.0.0.5.5.5.0.0.0.0.5.5.0.0.0.0.0.0.0.0.0.0.0.0.0.0.0.0.0.0.0.0.0.0.0.0.0.0.0.0.0.0.0.0.0.0.0.0.0.0.0.0.0.0.0.0.0.0.0.0.",
"0.0.0.0.0.0.5.5.5.5.0.0.0.0.5.5.0.0.0.0.0.0.0.0.0.0.0.0.0.0.0.0.0.0.0.0.0.0.0.0.0.0.0.0.0.0.0.0.0.0.0.0.0.0.0.0.0.0.0.0.0.0.0.0.",
"0.0.0.0.0.0.0.0.0.0.0.5.0.0.0.0.0.0.0.0.0.0.0.0.0.0.0.0.0.0.0.0.0.0.0.0.0.0.0.0.0.0.0.0.0.0.0.0.0.0.0.0.0.0.0.0.0.0.0.0.0.0.0.0.",
"0.0.0.0.0.0.0.0.0.0.0.0.0.0.0.0.0.0.0.0.0.0.0.0.0.0.0.0.0.0.0.0.0.0.0.0.0.0.0.0.0.0.0.0.0.0.0.0.0.0.0.0.0.0.0.0.0.0.0.0.0.0.0.0.",
"0.0.0.0.0.0.0.0.4.0.0.0.0.0.0.0.0.0.0.0.0.0.0.0.0.0.0.0.0.0.0.0.0.0.0.0.0.0.5.0.0.0.0.0.0.0.0.0.0.0.0.0.0.0.0.0.0.0.0.0.0.0.0.0.",
"0.0.0.0.0.0.0.0.0.0.0.0.0.0.0.0.1.-.! / ,.,.&.! ;.3.4.0.0.0.0.0.0.0.0.0.0.0.5.0.0.0.0.0.0.0.0.0.0.0.0.0.0.0.0.0.0.0.0.0.0.0.0.0.",
"0.0.0.0.0.0.0.4.0.0.0.0.0.0.0.@.R F K A ! ;.A K F U 1.0.0.0.0.0.0.0.0.0.0.0.0.5.4.0.0.0.0.0.0.4.0.0.0.0.0.0.0.0.0.0.0.0.0.0.0.0.",
"0.0.0.0.0.0.0.0.0.0.0.0.0.,.;.) I k a f K K f f H F X.0.0.0.0.0.0.0.0.0.0.0.0.0.0.0.0.0.0.0.0.0.0.0.0.0.0.0.0.0.0.0.0.0.0.0.0.0.",
"0.0.0.0.0.0.0.0.0.0.0.0.0.;.A k g N @ + b b + # 6 K ! 0.0.0.0.0.0.0.0.0.0.0.0.0.0.0.0.0.0.0.0.0.0.0.0.0.0.0.0.0.0.0.0.0.0.0.0.0.",
"0.0.0.0.0.0.0.0.0.0.0.O.{ K f N b O .         X 3 x ..0.0.0.0.0.0.0.0.0.0.0.0.0.0.0.0.0.0.0.0.0.0.0.0.0.0.0.0.0.0.0.0.0.0.0.0.0.",
"0.0.0.0.0.0.0.0.0.0.0.) a b + O X .             o 5 D 0.0.0.0.0.0.0.0.0.0.0.0.0.0.0.0.0.0.0.0.0.0.0.0.0.0.0.0.0.0.0.0.0.0.0.0.0.",
"0.0.0.0.0.0.0.0.0.0.0.F M .                       & A @.5.0.0.1.;.{ D S S F ` { ;.+.0.0.0.0.0.0.0.0.0.0.0.0.0.0.0.0.0.0.0.0.0.0.",
"0.0.0.0.0.0.5.5.0.0.0.` i O .                     : H T @.0.0.;.A x B n n N i z A T +.0.0.0.0.0.0.0.0.0.0.0.0.0.0.0.0.0.0.0.0.0.",
"0.0.0.0.0.0.5.5.0.0.4.{ l & X                     + w F -.@.R I f M X     . O * 8 K | 3.4.,.;.! ;.3.4.0.0.0.0.0.0.0.0.0.0.0.0.0.",
"0.0.0.0.0.0.0.0.0.0.0.R H 4 o                     O 6 L / W k u @ O         . X + 4 K U 3.;.A I F T 3.0.0.5.0.0.0.0.0.0.0.0.0.0.",
"0.0.0.0.0.0.0.0.0.0.0.&.A 8 +   . . . .     . X % 4 e K F K B O .                 O 7 G S A f s j K | 3.,.0.0.0.0.0.0.0.0.0.0.0.",
"0.0.0.0.0.0.0.0.0.0.0.1.&.K & . O : : ; . . ; 4 H D { F k B + .                   . + = Z u @ O + 5 K | 3.0.0.0.0.0.0.0.0.0.0.0.",
"0.0.0.0.0.0.0.0.0.0.0.0.0._ 6 3 , g g 5 X . ; d ` 0.0.D i + .                         . 9 O .     + q F ;.0.0.0.0.0.0.0.0.0.0.0.",
"0.0.0.0.0.0.0.0.0.0.0.0.0.X.` F ` ` } H %   . 3 D 0.0.F N .                             . .       O 7 K &.0.0.0.5.5.0.0.0.0.0.0.",
"0.0.0.0.0.0.0.0.0.0.0.0.0.0.0.0.0.0.0.F 3 .   & I 1.4.F n                   X O O X             . @ q A &.0.0.0.5.0.0.0.4.0.0.0.",
"0.0.0.0.0.0.0.0.0.0.0.0.0.0.0.0.0.0.0.` < + . & H T +.F n                 X * , , > X     $   . + 5 A &.,.0.0.0.0.0.0.0.0.0.0.0.",
"0.0.0.0.0.0.0.0.0.0.0.0.0.0.0.0.0.0.0.) g : . + 6 A ;.D B X           . + 3 l J G z 3 @ @ : = 3 < H E 0.0.0.0.0.0.0.0.0.0.0.0.0.",
"0.0.0.0.0.0.0.0.0.0.0.0.0.0.0.0.0.0.0.` g : . X * x { { x > o         + 7 G ` W ! ` K e e H A F ` T 3.0.0.0.0.0.0.0.0.0.0.0.0.0.",
"0.0.0.0.0.0.0.0.0.0.0.0.0.0.0.0.0.,.;.A r + . . O , F R A 8 @ .       % H T 1.0.0.1.R D ` T 3.0.0.0.0.0.0.0.0.0.0.0.0.0.0.0.0.0.",
"0.0.0.0.0.0.0.0.0.0.0.0.0.0.0.0.0.;.A p @ .     . = G } R L 5 + .     & A +.0.0.0.0.@.+.+.+.0.0.0.0.0.0.0.0.0.0.0.0.0.0.0.0.0.0.",
"0.0.0.0.0.0.0.0.0.0.0.0.0.0.0.0.0.! K t +         + 7 G F L g & .     % H { T ;.;.+.0.0.0.0.0.0.0.0.0.0.0.0.0.0.0.0.0.0.0.0.0.0.",
"0.0.0.0.0.0.0.0.0.0.0.5.0.0.0.0.0.-.F p +         . O = , g g V - $   o 4 l v K F T @.0.0.0.0.0.0.0.0.0.0.0.0.0.0.0.0.0.0.0.0.0.",
"0.0.0.0.0.0.0.0.0.0.0.5.0.0.0.0.0.@.T K 5 + + o X .   . + & 4 * -     . ; & 4 7 w H I F F F D T +.0.0.0.0.4.0.0.0.0.0.0.0.0.0.0.",
"0.0.0.0.0.0.0.0.0.0.0.0.0.0.0.0.0.5.@.{ K w 7 4 & + .   . X X X         . . o + + & & & = 3 , v T 0.0.0.0.0.0.0.0.0.0.0.0.0.0.0.",
"0.0.0.0.0.0.0.0.0.0.0.0.0.0.0.0.0.0.0.@.R F L k l < 3 & % O .             . - - O X       . O < ` 0.0.0.0.0.0.0.0.0.0.0.0.0.0.0.",
"0.0.0.0.0.0.0.0.0.0.0.0.0.0.0.0.0.0.0.4.3.;.! T { ` F A H 7 ;             o > C , > X       . 3 F 0.0.0.0.0.0.0.0.0.0.0.0.5.0.0.",
"0.0.0.0.0.0.0.0.0.0.0.0.0.0.0.0.0.0.0.0.0.0.0.0.0.0.0.+.R J :             X > d d C : o .   o 5 D 0.0.0.0.0.0.0.0.0.0.0.5.5.0.0.",
"0.0.0.0.0.0.0.0.0.0.0.0.0.0.0.0.0.0.0.0.0.0.0.5.0.0.0.0.+.A &               o ; * V C > o X > w | 0.0.0.0.0.0.0.0.0.0.4.0.0.0.0.",
"0.0.0.0.0.0.0.0.0.0.0.0.0.0.0.0.0.0.0.0.0.0.0.5.0.4.3.! D k b 0             . o + & 4 B & > z A ;.0.0.0.0.0.0.0.0.0.0.0.0.0.0.0.",
"0.0.0.0.0.0.0.0.0.0.0.0.0.0.0.0.5.0.0.0.0.0.0.0.0.+.T K u b .             . ; + o X o & g K ` &.1.0.0.0.0.0.0.0.0.0.0.0.0.0.0.0.",
"0.0.0.0.0.0.0.0.0.0.0.0.0.0.0.0.0.0.0.0.0.0.0.0.0.! K s O . o + % & + + & 1 Z 5 % X   + w F ;.0.0.0.0.0.0.0.0.0.0.0.0.0.0.0.0.0.",
"0.0.0.0.0.0.0.0.0.0.0.0.0.0.0.0.0.0.0.0.0.0.0.0.0.` s O . X > 6 K K 6 8 K F ` P l * o + 7 K ! 0.0.0.0.0.0.0.0.5.0.0.0.0.0.0.0.0.",
"0.0.0.0.0.0.0.0.0.0.0.0.0.0.0.0.0.0.0.0.0.0.1.;.! K b     ; d K ! / A A / 0.1.D l 3 X . 3 g K ` ! 3.4.0.0.0.0.5.5.5.0.0.0.0.0.0.",
"0.0.0.0.0.0.0.0.0.0.0.0.0.0.0.0.0.0.0.0.0.3.R F K g 9     ; z F X.5.;.;.,.@.T K M -     X ; & , K W @.0.0.0.0.0.0.0.0.0.0.0.0.0.",
"0.0.0.0.0.0.0.0.0.0.0.0.0.0.0.0.0.0.0.<.1.{ K j a M X     ; 7 K ! 0.0.0.0.;.F j +             O 7 K ! 0.0.0.0.0.0.0.0.0.0.0.0.4.",
"0.0.0.0.0.0.0.0.0.0.0.0.0.0.0.0.0.0.0.1.R K B + + X       . O < D 0.0.0.0./ K 7 +             . + , ` 0.0.0.0.0.0.0.0.0.0.0.0.0.",
"0.0.0.0.0.0.0.0.0.0.0.0.0.0.0.0.0.0.0.O.D l +               X 5 D 0.0.0.0./ A q 3 + X .         . 3 F 0.0.0.0.0.0.0.0.0.0.0.0.0.",
"0.0.0.0.0.0.0.0.0.0.0.0.0.0.0.0.0.0.0.! K a O             X * e | 4.0.0.0.,.;.` G 8 > + .     . O , ' 0.0.0.0.0.0.0.0.0.0.0.0.0.",
"0.0.0.0.0.0.0.0.0.0.0.0.0.0.0.0.0.0.0.;.A 8 # O O O O + % 5 z A &.0.0.0.0.0.0.1.T A x < 3 = & > < H T 0.0.0.0.0.0.0.0.0.0.0.0.0.",
"0.0.0.0.0.0.0.0.0.0.0.0.0.0.0.0.0.0.0.1.O.F q , , , , 6 K D | ;.1.0.0.0.0.0.0.,.3.&.| ` F F F F ` T @.0.0.0.0.0.0.0.0.4.0.0.0.4.",
"0.0.0.0.0.0.0.0.0.0.0.0.0.0.0.0.0.0.0.0.0.! G l l l l G ! 0.0.0.0.0.0.0.0.0.0.0.0.0.0.0.0.0.0.0.0.0.0.0.0.0.0.0.0.0.0.4.0.0.0.0."
};
