/* XPM */
static char *_1f66613bcc64caba7afdbdfdec3c632vMQhgtk97tp75crz[] = {
/* columns rows colors chars-per-pixel */
"16 16 40 1 ",
"  c #4B682E",
". c #4B6734",
"X c #4C6734",
"o c #4E6634",
"O c #4D6436",
"+ c #4E6537",
"@ c #4E6636",
"# c #4E6338",
"$ c #4F6439",
"% c #4E6539",
"& c #4F643B",
"* c #51623E",
"= c #52623E",
"- c #515F45",
"; c #525F45",
": c #535F47",
"> c #535F4B",
", c #555E4B",
"< c #535E4D",
"1 c #526140",
"2 c #516240",
"3 c #526341",
"4 c #516242",
"5 c #526144",
"6 c #526046",
"7 c #536046",
"8 c #526047",
"9 c #62734F",
"0 c #60744F",
"q c #666F5C",
"w c #666F5E",
"e c #666E5F",
"r c #637251",
"t c #627351",
"y c #637452",
"u c #637255",
"i c #637157",
"p c #647157",
"a c #647356",
"s c #637158",
/* pixels */
" +*9o.*9XX*t..&u",
"+$*9*#*t$$2t$$2u",
"uuauasssuuuasuuu",
"e>>;w<:8w>;5w>>5",
"e<>5w<;8w<5>w>;2",
"suuusuuuuuuuuqsu",
"+$*t#$*t##2t#&2s",
"+$2t*+2t+*2t&&2s",
"uuuasauuustususu",
"e>>;w,;>w>>;w>>5",
"e<;;w,;5w<;;w>;2",
"quutqauausauuqaa",
"#$*t+$2t+**t##2a",
"O#2t*#2y##2t##2a",
"suuuuuuuuuuuuuau",
"w>>5w>>;w<>;w>>5"
};
