/* XPM */
static char *caa1646d62334b77870d0c02ce39c030NcYgMJ4KlZrjMrrn[] = {
/* columns rows colors chars-per-pixel */
"16 16 31 1 ",
"  c #3F3F73",
". c #413F6E",
"X c #3F4167",
"o c #3F416A",
"O c #3F406E",
"+ c #414453",
"@ c #424453",
"# c #424358",
"$ c #42425C",
"% c #424160",
"& c #424161",
"* c #414260",
"= c #414261",
"- c #414163",
"; c #414167",
": c #41406A",
"> c #676975",
", c #666A75",
"< c #66677C",
"1 c #67677F",
"2 c #676978",
"3 c #66687D",
"4 c #67687D",
"5 c #66687F",
"6 c #68697E",
"7 c #676781",
"8 c #676685",
"9 c #666785",
"0 c #666786",
"q c #686882",
"w c #666688",
/* pixels */
" O&0  $w OX0.O$7",
":;$0XX$0XX$0;;&7",
"4177777744771177",
">@##2@##>+##>@#$",
">+##2@@#2@#@2+@$",
"4471117171777477",
"o;$0;;$7;;&8;;&7",
"o;&0;;.1;;$0;:&7",
"1171717711711677",
">@##2@##2@##2@#$",
">@##2@@#2+@#2+#$",
"1277727711771177",
":;$8;;$8;;$8;;$7",
":;&8;;&8;:&8;;&7",
"6177117716711177",
">@##2@#@2@##2@#$"
};
