/* XPM */
static char *_8863ebd4f0e485ba4b23bd390d3d599Gnq9EEHBE6VPKONx[] = {
/* columns rows colors chars-per-pixel */
"64 64 4 1 ",
"  c black",
". c #3A3277",
"X c #6772A9",
"o c white",
/* pixels */
"                        ooooo     ooooo                         ",
"                       o.....X   o.....X                        ",
"                      o.......X o.......X                       ",
"                     o...XXX...o...XXX...X                      ",
"                     o..X   XX...XX   X..X                      ",
"                     o.X     X.X.X     X.X                      ",
"                    o..X      X X      X..X                     ",
"                   o..X       X X       X..X                    ",
"                   o..X                 X..X                    ",
"                  o..X                   o..X                   ",
"                  o..X                   o..X                   ",
"                  o...X                 o...X                   ",
"                   X..X                 o..X                    ",
"                   X...X    o     o    o...X                    ",
"                    X....X  X  X  X  .....X                     ",
"                     X..X   X  X  X   o..X                      ",
"                     X..X  o.  .  .o  o..X                      ",
"                     X...XXX.  .  .Xoo...X                      ",
"                      X......  .  ......X                       ",
"                       X...X.  X  .X...X                        ",
"                        XXX .  X  . XXX                         ",
"                            X     X                             ",
"                            X     X                             ",
"                           oooooooooo                           ",
"                           o........X                           ",
"                            X......X                            ",
"                             X....X                             ",
"                              X..X                              ",
"                              o..X                              ",
"                              o..X                              ",
"                              o..Xooooo                         ",
"                              o..o.....XX                       ",
"                              o..........X                      ",
"                              o...........X                     ",
"                             o.............X                    ",
"                             o.............X                    ",
"                            o...............X                   ",
"                            o...............X                   ",
"                            o...............X                   ",
"                            X...............X                   ",
"                             X.............X                    ",
"                             X.............X                    ",
"                              X...........X                     ",
"                               X.........X                      ",
"                              XXX......XX                       ",
"                            XX.....XXXX                         ",
"                           X......X                             ",
"                           X......X                             ",
"                         oo........X                            ",
"                       oo..........X                            ",
"                      o...........X                             ",
"                     o...XX......X                              ",
"                     o..X X......XX                             ",
"                     o..X  XX......X                            ",
"                  ooo...XX   XXXX...X                           ",
"                 o........X      X..X                           ",
"                o.........X       X..X                          ",
"                o........XX       X..X                          ",
"                X......XX        oX...XXX                       ",
"                 XXXXXX         o........X                      ",
"                                o.........X                     ",
"                                XX........X                     ",
"                                  XX......X                     ",
"                                    XXXXXX                      "
};
