/* XPM */
static char *_65fe37a0e914c7ab12cb5e99f0fcd1cDLLI4kKmOcJbooNu[] = {
/* columns rows colors chars-per-pixel */
"128 128 4 1 ",
"  c black",
". c #3A3277",
"X c #6772A9",
"o c white",
/* pixels */
"                                                                                                                                ",
" ooooooooooooooooooooooooooooo.  ooooooooooooooooooooooooooooo.  ooooooooooooooooooooooooooooo.  ooooooooooooooooooooooooooooo. ",
" oXXXXXXXXXXXXXXXXXXXXXXXXXXXX.  oXXXXXXXXXXXXXXXXXXXXXXXXXXXX.  oXXXXXXXXXXXXXXXXXXXXXXXXXXXX.  oXXXXXXXXXXXXXXXXXXXXXXXXXXXX. ",
" oXXXXXXXXXXXXXXXXXXXXXXXXXXXX.  oXXXXXXXXXXXXXXXXXXXXXXXXXXXX.  oXXXXXXXXXXXXXXXXXXXXXXXXXXXX.  oXXXXXXXXXXXXXXXXXXXXXXXXXXXX. ",
" oXXXXXXXXXXXXXXXXXXXXXXXXXXXX.  oXXXXXXXXXXXXXXXXXXXXXXXXXXXX.  oXXXXXXXXXXXXXXXXXXXXXXXXXXXX.  oXXXXXXXXXXXXXXXXXXXXXXXXXXXX. ",
" oXXXXXXXXXXXXXXXXXXXXXXXXXXXX.  oXXXXXXXXXXXXXXXXXXXXXXXXXXXX.  oXXXXXXXXXXXXXXXXXXXXXXXXXXXX.  oXXXXXXXXXXXXXXXXXXXXXXXXXXXX. ",
" oXXXXXXXXXXXXXXXXXXXXXXXXXXXX.  oXXXXXXXXXXXXXXXXXXXXXXXXXXXX.  oXXXXXXXXXXXXXXXXXXXXXXXXXXXX.  oXXXXXXXXXXXXXXXXXXXXXXXXXXXX. ",
" oXXXXXXXXXXXXXXXXXXXXXXXXXXXX.  oXXXXXXXXXXXXXXXXXXXXXXXXXXXX.  oXXXXXXXXXXXXXXXXXXXXXXXXXXXX.  oXXXXXXXXXXXXXXXXXXXXXXXXXXXX. ",
" oXXXXXXXXXXXXXXXXXXXXXXXXXXXX.  oXXXXXXXXXXXXXXXXXXXXXXXXXXXX.  oXXXXXXXXXXXXXXXXXXXXXXXXXXXX.  oXXXXXXXXXXXXXXXXXXXXXXXXXXXX. ",
" oXXXXXXXXXXXXXXXXXXXXXXXXXXXX.  oXXXXXXXXXXXXXXXXXXXXXXXXXXXX.  oXXXXXXXXXXXXXXXXXXXXXXXXXXXX.  oXXXXXXXXXXXXXXXXXXXXXXXXXXXX. ",
" oXXXXXXXXXXXXXXXXXXXXXXXXXXXX.  oXXXXXXXXXXXXXXXXXXXXXXXXXXXX.  oXXXXXXXXXXXXXXXXXXXXXXXXXXXX.  oXXXXXXXXXXXXXXXXXXXXXXXXXXXX. ",
" oXXXXXXXXXXXXXXXXXXXXXXXXXXXX.  oXXXXXXXXXXXXXXXXXXXXXXXXXXXX.  oXXXXXXXXXXXXXXXXXXXXXXXXXXXX.  oXXXXXXXXXXXXXXXXXXXXXXXXXXXX. ",
" oXXXXXXXXXXXXXXXXXXXXXXXXXXXX.  oXXXXXXXXXXXXXXXXXXXXXXXXXXXX.  oXXXXXXXXXXXXXXXXXXXXXXXXXXXX.  oXXXXXXXXXXXXXXXXXXXXXXXXXXXX. ",
" oXXXXXXXXXXXXXXXXXXXXXXXXXXXX.  oXXXXXXXXXXXXXXXXXXXXXXXXXXXX.  oXXXXXXXXXXXXXXXXXXXXXXXXXXXX.  oXXXXXXXXXXXXXXXXXXXXXXXXXXXX. ",
" o.............................  o.............................  o.............................  o............................. ",
"                                                                                                                                ",
"                                                                                                                                ",
" ooooooooooooooooooooooooooooo.  ooooooooooooooooooooooooooooo.  ooooooooooooooooooooooooooooo.  ooooooooooooooooooooooooooooo. ",
" oXXXXXXXXXXXXXXXXXXXXXXXXXXXX.  oXXXXXXXXXXXXXXXXXXXXXXXXXXXX.  oXXXXXXXXXXXXXXXXXXXXXXXXXXXX.  oXXXXXXXXXXXXXXXXXXXXXXXXXXXX. ",
" oXXXXXXXXXXXXXXXXXXXXXXXXXXXX.  oXXXXXXXXXXXXXXXXXXXXXXXXXXXX.  oXXXXXXXXXXXXXXXXXXXXXXXXXXXX.  oXXXXXXXXXXXXXXXXXXXXXXXXXXXX. ",
" oXXXXXXXXXXXXXXXXXXXXXXXXXXXX.  oXXXXXXXXXXXXXXXXXXXXXXXXXXXX.  oXXXXXXXXXXXXXXXXXXXXXXXXXXXX.  oXXXXXXXXXXXXXXXXXXXXXXXXXXXX. ",
" oXXXXXXXXXXXXXXXXXXXXXXXXXXXX.  oXXXXXXXXXXXXXXXXXXXXXXXXXXXX.  oXXXXXXXXXXXXXXXXXXXXXXXXXXXX.  oXXXXXXXXXXXXXXXXXXXXXXXXXXXX. ",
" oXXXXXXXXXXXXXXXXXXXXXXXXXXXX.  oXXXXXXXXXXXXXXXXXXXXXXXXXXXX.  oXXXXXXXXXXXXXXXXXXXXXXXXXXXX.  oXXXXXXXXXXXXXXXXXXXXXXXXXXXX. ",
" oXXXXXXXXXXXXXXXXXXXXXXXXXXXX.  oXXXXXXXXXXXXXXXXXXXXXXXXXXXX.  oXXXXXXXXXXXXXXXXXXXXXXXXXXXX.  oXXXXXXXXXXXXXXXXXXXXXXXXXXXX. ",
" oXXXXXXXXXXXXXXXXXXXXXXXXXXXX.  oXXXXXXXXXXXXXXXXXXXXXXXXXXXX.  oXXXXXXXXXXXXXXXXXXXXXXXXXXXX.  oXXXXXXXXXXXXXXXXXXXXXXXXXXXX. ",
" oXXXXXXXXXXXXXXXXXXXXXXXXXXXX.  oXXXXXXXXXXXXXXXXXXXXXXXXXXXX.  oXXXXXXXXXXXXXXXXXXXXXXXXXXXX.  oXXXXXXXXXXXXXXXXXXXXXXXXXXXX. ",
" oXXXXXXXXXXXXXXXXXXXXXXXXXXXX.  oXXXXXXXXXXXXXXXXXXXXXXXXXXXX.  oXXXXXXXXXXXXXXXXXXXXXXXXXXXX.  oXXXXXXXXXXXXXXXXXXXXXXXXXXXX. ",
" oXXXXXXXXXXXXXXXXXXXXXXXXXXXX.  oXXXXXXXXXXXXXXXXXXXXXXXXXXXX.  oXXXXXXXXXXXXXXXXXXXXXXXXXXXX.  oXXXXXXXXXXXXXXXXXXXXXXXXXXXX. ",
" oXXXXXXXXXXXXXXXXXXXXXXXXXXXX.  oXXXXXXXXXXXXXXXXXXXXXXXXXXXX.  oXXXXXXXXXXXXXXXXXXXXXXXXXXXX.  oXXXXXXXXXXXXXXXXXXXXXXXXXXXX. ",
" oXXXXXXXXXXXXXXXXXXXXXXXXXXXX.  oXXXXXXXXXXXXXXXXXXXXXXXXXXXX.  oXXXXXXXXXXXXXXXXXXXXXXXXXXXX.  oXXXXXXXXXXXXXXXXXXXXXXXXXXXX. ",
" o.............................  o.............................  o.............................  o............................. ",
"                                                                                                                                ",
"                                                                                                                                ",
" ooooooooooooooooooooooooooooo.  ooooooooooooooooooooooooooooo.  ooooooooooooooooooooooooooooo.  ooooooooooooooooooooooooooooo. ",
" oXXXXXXXXXXXXXXXXXXXXXXXXXXXX.  oXXXXXXXXXXXXXXXXXXXXXXXXXXXX.  oXXXXXXXXXXXXXXXXXXXXXXXXXXXX.  oXXXXXXXXXXXXXXXXXXXXXXXXXXXX. ",
" oXXXXXXXXXXXXXXXXXXXXXXXXXXXX.  oXXXXXXXXXXXXXXXXXXXXXXXXXXXX.  oXXXXXXXXXXXXXXXXXXXXXXXXXXXX.  oXXXXXXXXXXXXXXXXXXXXXXXXXXXX. ",
" oXXXXXXXXXXXXXXXXXXXXXXXXXXXX.  oXXXXXXXXXXXXXXXXXXXXXXXXXXXX.  oXXXXXXXXXXXXXXXXXXXXXXXXXXXX.  oXXXXXXXXXXXXXXXXXXXXXXXXXXXX. ",
" oXXXXXXXXXXXXXXXXXXXXXXXXXXXX.  oXXXXXXXXXXXXXXXXXXXXXXXXXXXX.  oXXXXXXXXXXXXXXXXXXXXXXXXXXXX.  oXXXXXXXXXXXXXXXXXXXXXXXXXXXX. ",
" oXXXXXXXXXXXXXXXXXXXXXXXXXXXX.  oXXXXXXXXXXXXXXXXXXXXXXXXXXXX.  oXXXXXXXXXXXXXXXXXXXXXXXXXXXX.  oXXXXXXXXXXXXXXXXXXXXXXXXXXXX. ",
" oXXXXXXXXXXXXXXXXXXXXXXXXXXXX.  oXXXXXXXXXXXXXXXXXXXXXXXXXXXX.  oXXXXXXXXXXXXXXXXXXXXXXXXXXXX.  oXXXXXXXXXXXXXXXXXXXXXXXXXXXX. ",
" oXXXXXXXXXXXXXXXXXXXXXXXXXXXX.  oXXXXXXXXXXXXXXXXXXXXXXXXXXXX.  oXXXXXXXXXXXXXXXXXXXXXXXXXXXX.  oXXXXXXXXXXXXXXXXXXXXXXXXXXXX. ",
" oXXXXXXXXXXXXXXXXXXXXXXXXXXXX.  oXXXXXXXXXXXXXXXXXXXXXXXXXXXX.  oXXXXXXXXXXXXXXXXXXXXXXXXXXXX.  oXXXXXXXXXXXXXXXXXXXXXXXXXXXX. ",
" oXXXXXXXXXXXXXXXXXXXXXXXXXXXX.  oXXXXXXXXXXXXXXXXXXXXXXXXXXXX.  oXXXXXXXXXXXXXXXXXXXXXXXXXXXX.  oXXXXXXXXXXXXXXXXXXXXXXXXXXXX. ",
" oXXXXXXXXXXXXXXXXXXXXXXXXXXXX.  oXXXXXXXXXXXXXXXXXXXXXXXXXXXX.  oXXXXXXXXXXXXXXXXXXXXXXXXXXXX.  oXXXXXXXXXXXXXXXXXXXXXXXXXXXX. ",
" oXXXXXXXXXXXXXXXXXXXXXXXXXXXX.  oXXXXXXXXXXXXXXXXXXXXXXXXXXXX.  oXXXXXXXXXXXXXXXXXXXXXXXXXXXX.  oXXXXXXXXXXXXXXXXXXXXXXXXXXXX. ",
" oXXXXXXXXXXXXXXXXXXXXXXXXXXXX.  oXXXXXXXXXXXXXXXXXXXXXXXXXXXX.  oXXXXXXXXXXXXXXXXXXXXXXXXXXXX.  oXXXXXXXXXXXXXXXXXXXXXXXXXXXX. ",
" o.............................  o.............................  o.............................  o............................. ",
"                                                                                                                                ",
"                                                                                                                                ",
" ooooooooooooooooooooooooooooo.  ooooooooooooooooooooooooooooo.  ooooooooooooooooooooooooooooo.  ooooooooooooooooooooooooooooo. ",
" oXXXXXXXXXXXXXXXXXXXXXXXXXXXX.  oXXXXXXXXXXXXXXXXXXXXXXXXXXXX.  oXXXXXXXXXXXXXXXXXXXXXXXXXXXX.  oXXXXXXXXXXXXXXXXXXXXXXXXXXXX. ",
" oXXXXXXXXXXXXXXXXXXXXXXXXXXXX.  oXXXXXXXXXXXXXXXXXXXXXXXXXXXX.  oXXXXXXXXXXXXXXXXXXXXXXXXXXXX.  oXXXXXXXXXXXXXXXXXXXXXXXXXXXX. ",
" oXXXXXXXXXXXXXXXXXXXXXXXXXXXX.  oXXXXXXXXXXXXXXXXXXXXXXXXXXXX.  oXXXXXXXXXXXXXXXXXXXXXXXXXXXX.  oXXXXXXXXXXXXXXXXXXXXXXXXXXXX. ",
" oXXXXXXXXXXXXXXXXXXXXXXXXXXXX.  oXXXXXXXXXXXXXXXXXXXXXXXXXXXX.  oXXXXXXXXXXXXXXXXXXXXXXXXXXXX.  oXXXXXXXXXXXXXXXXXXXXXXXXXXXX. ",
" oXXXXXXXXXXXXXXXXXXXXXXXXXXXX.  oXXXXXXXXXXXXXXXXXXXXXXXXXXXX.  oXXXXXXXXXXXXXXXXXXXXXXXXXXXX.  oXXXXXXXXXXXXXXXXXXXXXXXXXXXX. ",
" oXXXXXXXXXXXXXXXXXXXXXXXXXXXX.  oXXXXXXXXXXXXXXXXXXXXXXXXXXXX.  oXXXXXXXXXXXXXXXXXXXXXXXXXXXX.  oXXXXXXXXXXXXXXXXXXXXXXXXXXXX. ",
" oXXXXXXXXXXXXXXXXXXXXXXXXXXXX.  oXXXXXXXXXXXXXXXXXXXXXXXXXXXX.  oXXXXXXXXXXXXXXXXXXXXXXXXXXXX.  oXXXXXXXXXXXXXXXXXXXXXXXXXXXX. ",
" oXXXXXXXXXXXXXXXXXXXXXXXXXXXX.  oXXXXXXXXXXXXXXXXXXXXXXXXXXXX.  oXXXXXXXXXXXXXXXXXXXXXXXXXXXX.  oXXXXXXXXXXXXXXXXXXXXXXXXXXXX. ",
" oXXXXXXXXXXXXXXXXXXXXXXXXXXXX.  oXXXXXXXXXXXXXXXXXXXXXXXXXXXX.  oXXXXXXXXXXXXXXXXXXXXXXXXXXXX.  oXXXXXXXXXXXXXXXXXXXXXXXXXXXX. ",
" oXXXXXXXXXXXXXXXXXXXXXXXXXXXX.  oXXXXXXXXXXXXXXXXXXXXXXXXXXXX.  oXXXXXXXXXXXXXXXXXXXXXXXXXXXX.  oXXXXXXXXXXXXXXXXXXXXXXXXXXXX. ",
" oXXXXXXXXXXXXXXXXXXXXXXXXXXXX.  oXXXXXXXXXXXXXXXXXXXXXXXXXXXX.  oXXXXXXXXXXXXXXXXXXXXXXXXXXXX.  oXXXXXXXXXXXXXXXXXXXXXXXXXXXX. ",
" oXXXXXXXXXXXXXXXXXXXXXXXXXXXX.  oXXXXXXXXXXXXXXXXXXXXXXXXXXXX.  oXXXXXXXXXXXXXXXXXXXXXXXXXXXX.  oXXXXXXXXXXXXXXXXXXXXXXXXXXXX. ",
" o.............................  o.............................  o.............................  o............................. ",
"                                                                                                                                ",
"                                                                                                                                ",
" ooooooooooooooooooooooooooooo.  ooooooooooooooooooooooooooooo.  ooooooooooooooooooooooooooooo.  ooooooooooooooooooooooooooooo. ",
" oXXXXXXXXXXXXXXXXXXXXXXXXXXXX.  oXXXXXXXXXXXXXXXXXXXXXXXXXXXX.  oXXXXXXXXXXXXXXXXXXXXXXXXXXXX.  oXXXXXXXXXXXXXXXXXXXXXXXXXXXX. ",
" oXXXXXXXXXXXXXXXXXXXXXXXXXXXX.  oXXXXXXXXXXXXXXXXXXXXXXXXXXXX.  oXXXXXXXXXXXXXXXXXXXXXXXXXXXX.  oXXXXXXXXXXXXXXXXXXXXXXXXXXXX. ",
" oXXXXXXXXXXXXXXXXXXXXXXXXXXXX.  oXXXXXXXXXXXXXXXXXXXXXXXXXXXX.  oXXXXXXXXXXXXXXXXXXXXXXXXXXXX.  oXXXXXXXXXXXXXXXXXXXXXXXXXXXX. ",
" oXXXXXXXXXXXXXXXXXXXXXXXXXXXX.  oXXXXXXXXXXXXXXXXXXXXXXXXXXXX.  oXXXXXXXXXXXXXXXXXXXXXXXXXXXX.  oXXXXXXXXXXXXXXXXXXXXXXXXXXXX. ",
" oXXXXXXXXXXXXXXXXXXXXXXXXXXXX.  oXXXXXXXXXXXXXXXXXXXXXXXXXXXX.  oXXXXXXXXXXXXXXXXXXXXXXXXXXXX.  oXXXXXXXXXXXXXXXXXXXXXXXXXXXX. ",
" oXXXXXXXXXXXXXXXXXXXXXXXXXXXX.  oXXXXXXXXXXXXXXXXXXXXXXXXXXXX.  oXXXXXXXXXXXXXXXXXXXXXXXXXXXX.  oXXXXXXXXXXXXXXXXXXXXXXXXXXXX. ",
" oXXXXXXXXXXXXXXXXXXXXXXXXXXXX.  oXXXXXXXXXXXXXXXXXXXXXXXXXXXX.  oXXXXXXXXXXXXXXXXXXXXXXXXXXXX.  oXXXXXXXXXXXXXXXXXXXXXXXXXXXX. ",
" oXXXXXXXXXXXXXXXXXXXXXXXXXXXX.  oXXXXXXXXXXXXXXXXXXXXXXXXXXXX.  oXXXXXXXXXXXXXXXXXXXXXXXXXXXX.  oXXXXXXXXXXXXXXXXXXXXXXXXXXXX. ",
" oXXXXXXXXXXXXXXXXXXXXXXXXXXXX.  oXXXXXXXXXXXXXXXXXXXXXXXXXXXX.  oXXXXXXXXXXXXXXXXXXXXXXXXXXXX.  oXXXXXXXXXXXXXXXXXXXXXXXXXXXX. ",
" oXXXXXXXXXXXXXXXXXXXXXXXXXXXX.  oXXXXXXXXXXXXXXXXXXXXXXXXXXXX.  oXXXXXXXXXXXXXXXXXXXXXXXXXXXX.  oXXXXXXXXXXXXXXXXXXXXXXXXXXXX. ",
" oXXXXXXXXXXXXXXXXXXXXXXXXXXXX.  oXXXXXXXXXXXXXXXXXXXXXXXXXXXX.  oXXXXXXXXXXXXXXXXXXXXXXXXXXXX.  oXXXXXXXXXXXXXXXXXXXXXXXXXXXX. ",
" oXXXXXXXXXXXXXXXXXXXXXXXXXXXX.  oXXXXXXXXXXXXXXXXXXXXXXXXXXXX.  oXXXXXXXXXXXXXXXXXXXXXXXXXXXX.  oXXXXXXXXXXXXXXXXXXXXXXXXXXXX. ",
" o.............................  o.............................  o.............................  o............................. ",
"                                                                                                                                ",
"                                                                                                                                ",
" ooooooooooooooooooooooooooooo.  ooooooooooooooooooooooooooooo.  ooooooooooooooooooooooooooooo.  ooooooooooooooooooooooooooooo. ",
" oXXXXXXXXXXXXXXXXXXXXXXXXXXXX.  oXXXXXXXXXXXXXXXXXXXXXXXXXXXX.  oXXXXXXXXXXXXXXXXXXXXXXXXXXXX.  oXXXXXXXXXXXXXXXXXXXXXXXXXXXX. ",
" oXXXXXXXXXXXXXXXXXXXXXXXXXXXX.  oXXXXXXXXXXXXXXXXXXXXXXXXXXXX.  oXXXXXXXXXXXXXXXXXXXXXXXXXXXX.  oXXXXXXXXXXXXXXXXXXXXXXXXXXXX. ",
" oXXXXXXXXXXXXXXXXXXXXXXXXXXXX.  oXXXXXXXXXXXXXXXXXXXXXXXXXXXX.  oXXXXXXXXXXXXXXXXXXXXXXXXXXXX.  oXXXXXXXXXXXXXXXXXXXXXXXXXXXX. ",
" oXXXXXXXXXXXXXXXXXXXXXXXXXXXX.  oXXXXXXXXXXXXXXXXXXXXXXXXXXXX.  oXXXXXXXXXXXXXXXXXXXXXXXXXXXX.  oXXXXXXXXXXXXXXXXXXXXXXXXXXXX. ",
" oXXXXXXXXXXXXXXXXXXXXXXXXXXXX.  oXXXXXXXXXXXXXXXXXXXXXXXXXXXX.  oXXXXXXXXXXXXXXXXXXXXXXXXXXXX.  oXXXXXXXXXXXXXXXXXXXXXXXXXXXX. ",
" oXXXXXXXXXXXXXXXXXXXXXXXXXXXX.  oXXXXXXXXXXXXXXXXXXXXXXXXXXXX.  oXXXXXXXXXXXXXXXXXXXXXXXXXXXX.  oXXXXXXXXXXXXXXXXXXXXXXXXXXXX. ",
" oXXXXXXXXXXXXXXXXXXXXXXXXXXXX.  oXXXXXXXXXXXXXXXXXXXXXXXXXXXX.  oXXXXXXXXXXXXXXXXXXXXXXXXXXXX.  oXXXXXXXXXXXXXXXXXXXXXXXXXXXX. ",
" oXXXXXXXXXXXXXXXXXXXXXXXXXXXX.  oXXXXXXXXXXXXXXXXXXXXXXXXXXXX.  oXXXXXXXXXXXXXXXXXXXXXXXXXXXX.  oXXXXXXXXXXXXXXXXXXXXXXXXXXXX. ",
" oXXXXXXXXXXXXXXXXXXXXXXXXXXXX.  oXXXXXXXXXXXXXXXXXXXXXXXXXXXX.  oXXXXXXXXXXXXXXXXXXXXXXXXXXXX.  oXXXXXXXXXXXXXXXXXXXXXXXXXXXX. ",
" oXXXXXXXXXXXXXXXXXXXXXXXXXXXX.  oXXXXXXXXXXXXXXXXXXXXXXXXXXXX.  oXXXXXXXXXXXXXXXXXXXXXXXXXXXX.  oXXXXXXXXXXXXXXXXXXXXXXXXXXXX. ",
" oXXXXXXXXXXXXXXXXXXXXXXXXXXXX.  oXXXXXXXXXXXXXXXXXXXXXXXXXXXX.  oXXXXXXXXXXXXXXXXXXXXXXXXXXXX.  oXXXXXXXXXXXXXXXXXXXXXXXXXXXX. ",
" oXXXXXXXXXXXXXXXXXXXXXXXXXXXX.  oXXXXXXXXXXXXXXXXXXXXXXXXXXXX.  oXXXXXXXXXXXXXXXXXXXXXXXXXXXX.  oXXXXXXXXXXXXXXXXXXXXXXXXXXXX. ",
" o.............................  o.............................  o.............................  o............................. ",
"                                                                                                                                ",
"                                                                                                                                ",
" ooooooooooooooooooooooooooooo.  ooooooooooooooooooooooooooooo.  ooooooooooooooooooooooooooooo.  ooooooooooooooooooooooooooooo. ",
" oXXXXXXXXXXXXXXXXXXXXXXXXXXXX.  oXXXXXXXXXXXXXXXXXXXXXXXXXXXX.  oXXXXXXXXXXXXXXXXXXXXXXXXXXXX.  oXXXXXXXXXXXXXXXXXXXXXXXXXXXX. ",
" oXXXXXXXXXXXXXXXXXXXXXXXXXXXX.  oXXXXXXXXXXXXXXXXXXXXXXXXXXXX.  oXXXXXXXXXXXXXXXXXXXXXXXXXXXX.  oXXXXXXXXXXXXXXXXXXXXXXXXXXXX. ",
" oXXXXXXXXXXXXXXXXXXXXXXXXXXXX.  oXXXXXXXXXXXXXXXXXXXXXXXXXXXX.  oXXXXXXXXXXXXXXXXXXXXXXXXXXXX.  oXXXXXXXXXXXXXXXXXXXXXXXXXXXX. ",
" oXXXXXXXXXXXXXXXXXXXXXXXXXXXX.  oXXXXXXXXXXXXXXXXXXXXXXXXXXXX.  oXXXXXXXXXXXXXXXXXXXXXXXXXXXX.  oXXXXXXXXXXXXXXXXXXXXXXXXXXXX. ",
" oXXXXXXXXXXXXXXXXXXXXXXXXXXXX.  oXXXXXXXXXXXXXXXXXXXXXXXXXXXX.  oXXXXXXXXXXXXXXXXXXXXXXXXXXXX.  oXXXXXXXXXXXXXXXXXXXXXXXXXXXX. ",
" oXXXXXXXXXXXXXXXXXXXXXXXXXXXX.  oXXXXXXXXXXXXXXXXXXXXXXXXXXXX.  oXXXXXXXXXXXXXXXXXXXXXXXXXXXX.  oXXXXXXXXXXXXXXXXXXXXXXXXXXXX. ",
" oXXXXXXXXXXXXXXXXXXXXXXXXXXXX.  oXXXXXXXXXXXXXXXXXXXXXXXXXXXX.  oXXXXXXXXXXXXXXXXXXXXXXXXXXXX.  oXXXXXXXXXXXXXXXXXXXXXXXXXXXX. ",
" oXXXXXXXXXXXXXXXXXXXXXXXXXXXX.  oXXXXXXXXXXXXXXXXXXXXXXXXXXXX.  oXXXXXXXXXXXXXXXXXXXXXXXXXXXX.  oXXXXXXXXXXXXXXXXXXXXXXXXXXXX. ",
" oXXXXXXXXXXXXXXXXXXXXXXXXXXXX.  oXXXXXXXXXXXXXXXXXXXXXXXXXXXX.  oXXXXXXXXXXXXXXXXXXXXXXXXXXXX.  oXXXXXXXXXXXXXXXXXXXXXXXXXXXX. ",
" oXXXXXXXXXXXXXXXXXXXXXXXXXXXX.  oXXXXXXXXXXXXXXXXXXXXXXXXXXXX.  oXXXXXXXXXXXXXXXXXXXXXXXXXXXX.  oXXXXXXXXXXXXXXXXXXXXXXXXXXXX. ",
" oXXXXXXXXXXXXXXXXXXXXXXXXXXXX.  oXXXXXXXXXXXXXXXXXXXXXXXXXXXX.  oXXXXXXXXXXXXXXXXXXXXXXXXXXXX.  oXXXXXXXXXXXXXXXXXXXXXXXXXXXX. ",
" oXXXXXXXXXXXXXXXXXXXXXXXXXXXX.  oXXXXXXXXXXXXXXXXXXXXXXXXXXXX.  oXXXXXXXXXXXXXXXXXXXXXXXXXXXX.  oXXXXXXXXXXXXXXXXXXXXXXXXXXXX. ",
" o.............................  o.............................  o.............................  o............................. ",
"                                                                                                                                ",
"                                                                                                                                ",
" ooooooooooooooooooooooooooooo.  ooooooooooooooooooooooooooooo.  ooooooooooooooooooooooooooooo.  ooooooooooooooooooooooooooooo. ",
" oXXXXXXXXXXXXXXXXXXXXXXXXXXXX.  oXXXXXXXXXXXXXXXXXXXXXXXXXXXX.  oXXXXXXXXXXXXXXXXXXXXXXXXXXXX.  oXXXXXXXXXXXXXXXXXXXXXXXXXXXX. ",
" oXXXXXXXXXXXXXXXXXXXXXXXXXXXX.  oXXXXXXXXXXXXXXXXXXXXXXXXXXXX.  oXXXXXXXXXXXXXXXXXXXXXXXXXXXX.  oXXXXXXXXXXXXXXXXXXXXXXXXXXXX. ",
" oXXXXXXXXXXXXXXXXXXXXXXXXXXXX.  oXXXXXXXXXXXXXXXXXXXXXXXXXXXX.  oXXXXXXXXXXXXXXXXXXXXXXXXXXXX.  oXXXXXXXXXXXXXXXXXXXXXXXXXXXX. ",
" oXXXXXXXXXXXXXXXXXXXXXXXXXXXX.  oXXXXXXXXXXXXXXXXXXXXXXXXXXXX.  oXXXXXXXXXXXXXXXXXXXXXXXXXXXX.  oXXXXXXXXXXXXXXXXXXXXXXXXXXXX. ",
" oXXXXXXXXXXXXXXXXXXXXXXXXXXXX.  oXXXXXXXXXXXXXXXXXXXXXXXXXXXX.  oXXXXXXXXXXXXXXXXXXXXXXXXXXXX.  oXXXXXXXXXXXXXXXXXXXXXXXXXXXX. ",
" oXXXXXXXXXXXXXXXXXXXXXXXXXXXX.  oXXXXXXXXXXXXXXXXXXXXXXXXXXXX.  oXXXXXXXXXXXXXXXXXXXXXXXXXXXX.  oXXXXXXXXXXXXXXXXXXXXXXXXXXXX. ",
" oXXXXXXXXXXXXXXXXXXXXXXXXXXXX.  oXXXXXXXXXXXXXXXXXXXXXXXXXXXX.  oXXXXXXXXXXXXXXXXXXXXXXXXXXXX.  oXXXXXXXXXXXXXXXXXXXXXXXXXXXX. ",
" oXXXXXXXXXXXXXXXXXXXXXXXXXXXX.  oXXXXXXXXXXXXXXXXXXXXXXXXXXXX.  oXXXXXXXXXXXXXXXXXXXXXXXXXXXX.  oXXXXXXXXXXXXXXXXXXXXXXXXXXXX. ",
" oXXXXXXXXXXXXXXXXXXXXXXXXXXXX.  oXXXXXXXXXXXXXXXXXXXXXXXXXXXX.  oXXXXXXXXXXXXXXXXXXXXXXXXXXXX.  oXXXXXXXXXXXXXXXXXXXXXXXXXXXX. ",
" oXXXXXXXXXXXXXXXXXXXXXXXXXXXX.  oXXXXXXXXXXXXXXXXXXXXXXXXXXXX.  oXXXXXXXXXXXXXXXXXXXXXXXXXXXX.  oXXXXXXXXXXXXXXXXXXXXXXXXXXXX. ",
" oXXXXXXXXXXXXXXXXXXXXXXXXXXXX.  oXXXXXXXXXXXXXXXXXXXXXXXXXXXX.  oXXXXXXXXXXXXXXXXXXXXXXXXXXXX.  oXXXXXXXXXXXXXXXXXXXXXXXXXXXX. ",
" oXXXXXXXXXXXXXXXXXXXXXXXXXXXX.  oXXXXXXXXXXXXXXXXXXXXXXXXXXXX.  oXXXXXXXXXXXXXXXXXXXXXXXXXXXX.  oXXXXXXXXXXXXXXXXXXXXXXXXXXXX. ",
" o.............................  o.............................  o.............................  o............................. ",
"                                                                                                                                "
};
