/* XPM */
static char *d6f02d8bc9c74e94aa621b0501f43117ChOrexgUTPrIhR4f[] = {
/* columns rows colors chars-per-pixel */
"64 64 2 1 ",
"  c black",
". c white",
/* pixels */
"................................................................",
"               .               .               .               .",
"               .               .               .               .",
"               .               .               .               .",
"               .               .               .               .",
"               .               .               .               .",
"               .               .               .               .",
"................................................................",
"       .               .               .               .        ",
"       .               .               .               .        ",
"       .               .               .               .        ",
"       .               .               .               .        ",
"       .               .               .               .        ",
"       .               .               .               .        ",
"       .               .               .               .        ",
"................................................................",
"               .               .               .               .",
"               .               .               .               .",
"               .               .               .               .",
"               .               .               .               .",
"               .               .               .               .",
"               .               .               .               .",
"               .               .               .               .",
"................................................................",
"       .               .               .               .        ",
"       .               .               .               .        ",
"       .               .               .               .        ",
"       .               .               .               .        ",
"       .               .               .               .        ",
"       .               .               .               .        ",
"       .               .               .               .        ",
"................................................................",
"               .               .               .               .",
"               .               .               .               .",
"               .               .               .               .",
"               .               .               .               .",
"               .               .               .               .",
"               .               .               .               .",
"               .               .               .               .",
"................................................................",
"        .              .               .               .        ",
"        .              .               .               .        ",
"        .              .               .               .        ",
"        .              .               .               .        ",
"        .              .               .               .        ",
"        .              .               .               .        ",
"        .              .               .               .        ",
"................................................................",
"               .               .               .               .",
"               .               .               .               .",
"               .               .               .               .",
"               .               .               .               .",
"               .               .               .               .",
"               .               .               .               .",
"               .               .               .               .",
"................................................................",
"        .              .               .               .        ",
"        .              .               .               .        ",
"        .              .               .               .        ",
"        .              .               .               .        ",
"        .              .               .               .        ",
"        .              .               .               .        ",
"        .              .               .               .        ",
"................................................................"
};
