/* XPM */
static char *_6ec786e062d4695d88cab9064a7fe48igqOs4UCY1TqKhsi[] = {
/* columns rows colors chars-per-pixel */
"64 64 2 1 ",
"  c #3A3277",
". c #6772A9",
/* pixels */
"                                                                ",
"............... ............... ............... ................",
"............... ............... ............... ................",
"............... ............... ............... ................",
"............... ............... ............... ................",
"............... ............... ............... ................",
"............... ............... ............... ................",
"                                                                ",
"....... ............... ............... ............... ........",
"....... ............... ............... ............... ........",
"....... ............... ............... ............... ........",
"....... ............... ............... ............... ........",
"....... ............... ............... ............... ........",
"....... ............... ............... ............... ........",
"....... ............... ............... ............... ........",
"                                                                ",
"............... ............... ............... ................",
"............... ............... ............... ................",
"............... ............... ............... ................",
"............... ............... ............... ................",
"............... ............... ............... ................",
"............... ............... ............... ................",
"............... ............... ............... ................",
"                                                                ",
"....... ............... ............... ............... ........",
"....... ............... ............... ............... ........",
"....... ............... ............... ............... ........",
"....... ............... ............... ............... ........",
"....... ............... ............... ............... ........",
"....... ............... ............... ............... ........",
"....... ............... ............... ............... ........",
"                                                                ",
"............... ............... ............... ................",
"............... ............... ............... ................",
"............... ............... ............... ................",
"............... ............... ............... ................",
"............... ............... ............... ................",
"............... ............... ............... ................",
"............... ............... ............... ................",
"                                                                ",
"........ .............. ............... ............... ........",
"........ .............. ............... ............... ........",
"........ .............. ............... ............... ........",
"........ .............. ............... ............... ........",
"........ .............. ............... ............... ........",
"........ .............. ............... ............... ........",
"........ .............. ............... ............... ........",
"                                                                ",
"............... ............... ............... ................",
"............... ............... ............... ................",
"............... ............... ............... ................",
"............... ............... ............... ................",
"............... ............... ............... ................",
"............... ............... ............... ................",
"............... ............... ............... ................",
"                                                                ",
"........ .............. ............... ............... ........",
"........ .............. ............... ............... ........",
"........ .............. ............... ............... ........",
"........ .............. ............... ............... ........",
"........ .............. ............... ............... ........",
"........ .............. ............... ............... ........",
"........ .............. ............... ............... ........",
"                                                                "
};
